/* XPM */
static char * coin3_xpm[] = {
"50 50 9 1",
" 	c #4D9262",
".	c #7AB055",
"+	c #3E734E",
"@	c #6B1719",
"#	c #EE5155",
"$	c #FADAD3",
"%	c #F5A3A5",
"&	c #FFFFFF",
"*	c #AF1F22",
"                                         ...      ",
"                                         ...      ",
"                           .             ... ..   ",
"                           .              ++.++   ",
"                           .              ++.++   ",
"                           .                +     ",
"                                                  ",
"                                                  ",
"     .                                            ",
"     .                                            ",
"     .                                            ",
"  .  .                                            ",
"  .                                               ",
"  .                                               ",
"                       @@@@                       ",
"                       @@@@                       ",
"                      @##$$@                      ",
"                    @@###$$%@@                    ",
"                    @@###$$%@@                    ",
"                   @#####$$&%%@                +  ",
"                 @@*###%%%%&&&%@@            ++ ++",
"                 @@*###%%%%&&&%@@            ++ ++",
"                @***##%%%%%%$$$%%@             +  ",
"              @@####%%%%%%%%%%$$$$@@              ",
"              @@####%%%%%%%%%%$$$$@@              ",
"      ++      @@****##%%%%%%%%####@@              ",
"      ++      @@****##%%%%%%%%####@@              ",
"      ++        @*****#%%%%%#####@       ...      ",
"                 @@****##%%####@@        ... ..   ",
"                 @@****##%%####@@        ... ..   ",
"                   @*****##***@           ..+..   ",
"                    @@***##*@@            ++.++   ",
"                    @@***##*@@            ++.++   ",
"            ..        @**##@                +     ",
"        ...+..         @@@@                       ",
"        ...+..         @@@@                       ",
"        +...++                                    ",
"         +++       .                              ",
"         +++       .                              ",
"                    ..                            ",
"                    ..                            ",
"                   .                              ",
"                                                  ",
"                                                  ",
"                                                  ",
"                               ++                 ",
"                               ++                 ",
"                              +  +                ",
"                               ++                 ",
"                               ++                 "};
