/* XPM */
static char * e14_xpm[] = {
"50 50 24 1",
" 	c #4D9262",
".	c #7AB055",
"+	c #3E734E",
"@	c #8895AF",
"#	c #434F65",
"$	c #A6B0C4",
"%	c #6F7F9F",
"&	c #377937",
"*	c #35682F",
"=	c #565656",
"-	c #489348",
";	c #428642",
">	c #2E5B29",
",	c #284E23",
"'	c #203D1D",
")	c #377837",
"!	c #35672F",
"~	c #428240",
"{	c #428542",
"]	c #428441",
"^	c #489248",
"/	c #488F46",
"(	c #377736",
"_	c #489247",
"                          ..                      ",
"                 .        .. .               .    ",
"                 .         +.+               .    ",
"                 .          +                     ",
"                                                  ",
"   .                                              ",
"   .                @@@@@@@@@@                    ",
" . .                @@@@@@@@@@                    ",
" .                  @@@@@@@@@@                    ",
"           @@@@@@@@#@@@@@@@@@@#@@@@@@@@           ",
"           @@@@@@@@#@@@@@@@@@@#@@@@@@@@           ",
"           @@@@@@@@#$$$$$$$$$$#@@@@@@@@           ",
"##@@@@@@@##@@@@@@@@#%%%%%%%%%%#@@@@@@@@##@@@@@@@##",
"##@@@@@@@##@@@@@@@@#%%%%%%%%%%#@@@@@@@@##@@@@@@@##",
"##@@@@@@@##$$$$$$$$#%%%%%%%%%%#$$$$$$$$##@@@@@@@##",
"##@@@@@@@##$$$$$$$$#%%%%%%%%%%#$$$$$$$$##@@@@@@@##",
"##@@@@@@@##%%%%%%%%#%%%%%%%%%%#%%%%%%%%##@@@@@@@##",
"##$$$$$$$##%%%%%%%%#%%%%%%%%%%#%%%%%%%%##$$$$$$$##",
"##$$$$$$$##%%%%%%%%#%%%%%%%%%%#%%%%%%%%##$$$$$$$##",
"##%%%%%%%##%%%%%%%%&****&&&&&&&%%%%%%%%##%%%%%%%##",
"##%%%%%%%==-;;;;&&&********&***&&;;;;;;-=%%%%%%%##",
"##%%%%%%%---;;;;&*******>*******&&&;;;;;-%%%%%%%##",
"##%%%%%%%--;;;;&&****>>>>>>>****&&&;;;;;-%%%%%%%##",
"#########--;;;;&&****>>>>>>>****&&&;;;;;-#########",
"#########--;;&&&*****>>>>>>>>****&&&;;;;;#########",
"##$$$$$$$;;;;&&&****>>>,>,,>>****&&&&;;;;$$$$$$$##",
"##$$$$$$$;;;&&&&***>>>>,,,,,>****&&&&;;;;$$$$$$$##",
"##%%%%%%%;;;&&&&***>>>>,,,,,>****&&&&;;;;%%%%%%%##",
"##%%%%%%%;;;&&&&***>>,,,''',>>>****&&;;;;%%%%%%%##",
"##%%%%%%%;;;&&&&&***>,,'''',>>>****&&;;;-%%%%%%%##",
"##%%%%%%%;;;&&&&****>,,''''',>>>***&;;;;-%%%%%%%##",
"##%%%%%%%;;;&&&&****>,,''''',>>>***&;;;;-%%%%%%%##",
"##%%%%%%%;;;&&&&***>>,,,'''',>>>***&;;;--%%%%%%%##",
"#########;;;&&&****>>,,''''',>>>***&;;;--#########",
"##$$$$$$$;;;&&&****>>,,''''',>>>***&;;;--$$$$$$$##",
"##$$$$$$$;;;&&&****>>,,'''',,>>>***&&;;--$$$$$$$##",
"##%%%%%%%--;;&&****>>>>,''',,>>****&&;;--%%%%%%%##",
"##%%%%%%%--;;&&&****>,,,,,,,>>>****&&;;;-%%%%%%%##",
"##%%%%%%%--;;&&&****>,,,,,,,>>>****&&;;;-%%%%%%%##",
"##%%%%%%%--;;&&&****>>>,,,,>>>>**&&&&;;;-%%%%%%%##",
"##%%%%%%%---;&&&&***>>>>,>>>>***&&&&&;;;-%%%%%%%##",
"##%%%%%%%---;&&&&****>>>>>>>****&&&&;;;;;%%%%%%%##",
"#########---;&&&&****>>>>>>>****&&&&;;;;;#########",
"#########---;;;&&****>>>>**>***&&&&;;;;;;#########",
"##$$$$$$$--;;;;;&&&****>*******&&&&;;;;;;$$$$$$$##",
"##%%%%%%%--;;;;;)&&&*!!******&&&&~;;;;;;-%%%%%%%##",
"##%%%%%%%--;;;;;)&&&**!******&&&&{;;;;;;-%%%%%%%##",
"##%%%%%%%--;;;;;;&&&&*******&&&&&;;;;;];^%%%%%%%##",
"##%%%%%%%//-;;;;;&)&&)&&***&&&&&;;;;;;{--%%%%%%%##",
"##%%%%%%%/--;;;;;&))](&&&&&&&;;;;;;;;_---%%%%%%%##"};
