/* XPM */
static char * e7_xpm[] = {
"50 50 19 1",
" 	c #4D9262",
".	c #7AB055",
"+	c #3E734E",
"@	c #8895AF",
"#	c #434F65",
"$	c #A6B0C4",
"%	c #6F7F9F",
"&	c #377937",
"*	c #35682F",
"=	c #565656",
"-	c #489348",
";	c #428642",
">	c #2E5B29",
",	c #412320",
"'	c #59302C",
")	c #6D3B36",
"!	c #5C322D",
"~	c #8C8C8C",
"{	c #ADADAD",
"                          ..                      ",
"                 .        .. .               .    ",
"                 .         +.+               .    ",
"                 .          +                     ",
"                                                  ",
"   .                                              ",
"   .                @@@@@@@@@@                    ",
" . .                @@@@@@@@@@                    ",
" .                  @@@@@@@@@@                    ",
"           @@@@@@@@#@@@@@@@@@@#@@@@@@@@           ",
"           @@@@@@@@#@@@@@@@@@@#@@@@@@@@           ",
"           @@@@@@@@#$$$$$$$$$$#@@@@@@@@           ",
"##@@@@@@@##@@@@@@@@#%%%%%%%%%%#@@@@@@@@##@@@@@@@##",
"##@@@@@@@##@@@@@@@@#%%%%%%%%%%#@@@@@@@@##@@@@@@@##",
"##@@@@@@@##$$$$$$$$#%%%%%%%%%%#$$$$$$$$##@@@@@@@##",
"##@@@@@@@##$$$$$$$$#%%%%%%%%%%#$$$$$$$$##@@@@@@@##",
"##@@@@@@@##%%%%%%%%#%%%%%%%%%%#%%%%%%%%##@@@@@@@##",
"##$$$$$$$##%%%%%%%%#%%%%%%%%%%#%%%%%%%%##$$$$$$$##",
"##$$$$$$$##%%%%%%%%#%%%%%%%%%%#%%%%%%%%##$$$$$$$##",
"##%%%%%%%##%%%%%%%%&****&&&&&&&%%%%%%%%##%%%%%%%##",
"##%%%%%%%==--;;;&&&&****&&&&&&&&&;;;;---=%%%%%%%##",
"##%%%%%%%==-;;;;&&&********&***&&;;;;;;-=%%%%%%%##",
"##%%%%%%%---;;;;&*******>*******&&&;;;;;-%%%%%%%##",
"#########--;;;;&&****>>>>>>>****&&&;;;;;-#########",
"#########--;;;;&&****>>>>>>>****&&&;;;;;-#########",
"##$$$$$$$--;;&&&***,,,,,,,,,,,,**&&&;;;;;$$$$$$$##",
"##$$$$$$$;;;;&&&***,,,,,,,,,,,,**&&&&;;;;$$$$$$$##",
"##%%%%%%%,,,,,,,,,,,,,,,,,,,,,,,,,,,,,,,,%%%%%%%##",
"##%%%%%%%,,,,,,,,,,,,,,,,,,,,,,,,,,,,,,,,%%%%%%%##",
"##%%%%%%%,,,,,,,,,,,,,,,,,,,,,,,,,,,,,,,,%%%%%%%##",
"##%%%%%%%,,,,,,,,,,',,'''''',,',,,,,,,,,,%%%%%%%##",
"##%%%%%%%''''',,'''',,'''''',,'''',,'''''%%%%%%%##",
"##%%%%%%%''''',,'''',,'''''',,'''',,'''''%%%%%%%##",
"#########''''',,))))!!))))))!!)))),,'''''#########",
"##$$$$$$$)))))!!))))!!))))))!!))))!!)))))$$$$$$$##",
"##$$$$$$$)))))!!))))!!))))))!!))))!!)))))$$$$$$$##",
"##%%%%%%%~~~{{!!))))!!))))))!!))))!!)))))%%%%%%%##",
"##%%%%%%%~~{{{!!))))!!))))))!!))))!!)))))%%%%%%%##",
"##%%%%%%%~~{{{!!))))!!))))))!!))))!!)))))%%%%%%%##",
"##%%%%%%%)))))!!))))!!))))))!!))))!!)))))%%%%%%%##",
"##%%%%%%%)))))!!))))!!))))))!!))))!!)))))%%%%%%%##",
"##%%%%%%%)))))!!))))!!))))))!!))))!!){{))%%%%%%%##",
"#########)))))!!))))!!))))))!!))))!!){{))#########",
"#########)))))!!))))!!))))))!!))))!!){{))#########",
"##$$$$$$$)))))!!))))!!))))))!!))))!!){{))$$$$$$$##",
"##%%%%%%%)))))!!))))!!))))))!!))))!!){{))%%%%%%%##",
"##%%%%%%%)))))!!))))!!))))))!!))))!!){{))%%%%%%%##",
"##%%%%%%%)))))!!))))!!))))))!!))))!!){{))%%%%%%%##",
"##%%%%%%%)))))!!))))!!))))))!!))))!!)))))%%%%%%%##",
"##%%%%%%%)))))!!))))!!))))))!!))))!!)))))%%%%%%%##"};
