/* XPM */
static char * g1_xpm[] = {
"50 50 9 1",
" 	c #4D9262",
".	c #7AB055",
"+	c #3E734E",
"@	c #8AD4ED",
"#	c #659BAD",
"$	c #8935A0",
"%	c #336575",
"&	c #D703CC",
"*	c #F76AFC",
"                          ..                      ",
"                 .        .. .               .    ",
"                 .         +.+               .    ",
"                 .          +                     ",
"                                                  ",
"   .                                              ",
"   .                                              ",
" . .                                              ",
" .                    @@@@@@@@@@@                 ",
"                 @@@@@@@@@@@@@@@@@                ",
"                 @@@@@@@@@@@@@@@@@                ",
"              @@@@@@@@@@@@@@@@@@@@@@              ",
"            @@@@@@@@@@@@@@@@@@@@@@@@         +    ",
"            @@@@@@@@@@@@@@@@@@@@@@@@        + +   ",
"           #@@@@@@@@@@@@@@@@@@@@@@@@ @@      +    ",
"           #@@@@@@@@@@@@@@@@@@@@@@@@ @@           ",
"    +      @@@@@@@@@@@@@@@@@@@@@@#@@@@@           ",
"    +      ###@@@@@########@@@@@@###@##          .",
"           ###@@@@@########@@@@@@###@##       .  .",
"           @@@##@##@@@@@@@@@@@@@@@###         ..+ ",
"           $@@@@%@@@@@&&&$$#@@@@@@            +.. ",
"        .  $@@@@%@@@@@&&&$$#@@@@@@             ++ ",
"     ..+.  $&&&&%@@@***&&##@@@@@@@                ",
"     +..+  #$$$$%%%&&&&##@@@@@@@@@                ",
"      ++   #$$$$%%%&&&&##@@@@@@@@@            .   ",
"           @####%###@@@@@@@@@@@@@#    ..      .   ",
"           @####%###@@@@@@@@@@@@@#          . .   ",
"           @@@@@@@@@@@@##%%%##@@@#          .     ",
"           %##%%%@@%%%%%%%%%@@@@@@@@@@@           ",
"           %##%%%@@%%%%%%%%%@@@@@@@@@@@           ",
"            %%%%%%%%%%$$$$$$@@@@@@@@@@@@@         ",
"              %%%%%$&&&&&$$#@@@@@@@@@@@@@@        ",
"  .           %%%%%$&&&&&$$#@@@@@@@@@@@@@@        ",
"  .             @$$&&&@$$##@@@@@@@@@#@@@@@        ",
"                @@@@@@@@@@@@@@@@@@## ####@        ",
"                @@@@@@@@@@@@@@@@@@## ####@        ",
"                 ##%%%#@@@@@@@@@@#                ",
"                   #@@@@@@@@@@@##%                ",
"                   #@@@@@@@@@@@##%                ",
"                   +##@@@@@@@@#%%                 ",
"                    ##@@@@@@@@#%%                 ",
"                   +                              ",
"                                                  ",
"                                                  ",
"                       .                    .     ",
"      .             .  .         .          .     ",
"      .             ..+.         .          . .   ",
"    . .              ++        . .                ",
"    .                          .                  ",
"                                                  "};
