/* XPM */
static char * g3_xpm[] = {
"50 50 8 1",
" 	c #4D9262",
".	c #7AB055",
"+	c #3E734E",
"@	c #8AD4ED",
"#	c #659BAD",
"$	c #336575",
"%	c #8935A0",
"&	c #D703CC",
"                          ..                      ",
"                 .        .. .               .    ",
"                 .         +.+               .    ",
"                 .          +                     ",
"                                                  ",
"   .                                              ",
"   .                                              ",
" . .                                              ",
" .                                                ",
"                                                  ",
"                                                  ",
"                                                  ",
"                              +              +    ",
"                             + +            + +   ",
"                              +              +    ",
"                                                  ",
"    +                 @@@@@@@@@###                ",
"    +           @@@@@@@@@@@@@@@@@@@@@##@@        .",
"                @@@@@@@@@@@@@@@@@@@@@##@@     .  .",
"            @@@@@@@@@@@@@@@@@@@@@@@@@@@##     ..+ ",
"           @@@@@@@@@@@@@@@@@@@@@@@@@#         +.. ",
"        .  @@@@@@@@@@@@@@@@@@@@@@@@@#          ++ ",
"     ..+.##@@@@@@@@@@@@@@@@@@@@@@$##              ",
"     +..+@@@@@@@@@@@@@@@@@@@@@@@@@##              ",
"      ++ @@@@@@@@@@@@@@@@@@@@@@@@@##          .   ",
"         ###@@@@@@@########@@@@@@@@@  ..      .   ",
"         ###@@@@@@@########@@@@@@@@@        . .   ",
"         @@@##@@###@@@@@@@@@@@@@@@@@        .     ",
"         @@@@@$$#@@@@@@@@@@@@@@@@@@@              ",
"         @@@@@$$#@@@@@@@@@@@@@@@@@@@              ",
"         ##%%%$$$$$&&&&&&$$###@@@@@@              ",
"         @@@@@@@@@@@@@@####@@@@###$$     @        ",
"  .      @@@@@@@@@@@@@@####@@@@###$$     @        ",
"  .      @@@@@@@@@@@@@@@@@@@@@@@@@@@ ##@@@        ",
"           $@@$$@@@$$$%%%%%%@@@@@@@@#@@@@@        ",
"           $@@$$@@@$$$%%%%%%@@@@@@@@#@@@@@        ",
"            $$$$$$$%&&&&&%%#@@@@@@@@@@@@@@        ",
"              @@%%%&&&@%%##@@@@@@@@@@@@@@#        ",
"              @@%%%&&&@%%##@@@@@@@@@@@@@@#        ",
"              @@@@@@@@@@@@@@@@@@@@@@@####         ",
"              @@@@@@@@@@@@@@@@@@@@@@@####         ",
"                ###$$$#@@@@@@@@@@###$             ",
"                   #@@@@@@@@@@@##$$$              ",
"                   #@@@@@@@@@@@##$$$              ",
"                    ##@@@@@@@@#$$           .     ",
"      .             .  .         .          .     ",
"      .             ..+.         .          . .   ",
"    . .              ++        . .                ",
"    .                          .                  ",
"                                                  "};
