/* XPM */
static char * g4_xpm[] = {
"50 50 9 1",
" 	c #4D9262",
".	c #7AB055",
"+	c #3E734E",
"@	c #8AD4ED",
"#	c #659BAD",
"$	c #8935A0",
"%	c #D703CC",
"&	c #336575",
"*	c #F76AFC",
"                          ..                      ",
"                 .        .. .               .    ",
"                 .         +.+               .    ",
"                 .          +                     ",
"                                                  ",
"   .                                              ",
"   .                                              ",
" . .                                              ",
" .                                                ",
"                    @@@@@@@@@@                    ",
"                    @@@@@@@@@@                    ",
"                 @@@@@@@@@@@@@@@@                 ",
"                @@@@@@@@@@@@@@@@@@           +    ",
"                @@@@@@@@@@@@@@@@@@          + +   ",
"              ##@@@@#####@@@@@@@@@@@         +    ",
"              ##@@@@#####@@@@@@@@@@@              ",
"    +       ##@@@@@#@@@@@##@@@@@@@@@              ",
"    +      #@@##@##@@@@@@@@#@@@@@#@@@            .",
"           #@@##@##@@@@@@@@#@@@@@#@@@         .  .",
"           @@@#####@##$##@@@@@@@@###@         ..+ ",
"           @$$@@#@@@$$%$$@@@@@@@@@&&#         +.. ",
"        .  @$$@@#@@@$$%$$@@@@@@@@@&&#          ++ ",
"     ..+.  $%%##&@@@$$*%%@@@@@@@@@@@              ",
"     +..+  $%%&&@@@&***%%@@@@@@@@@@@              ",
"      ++   $%%&&@@@&***%%@@@@@@@@@@@          .   ",
"           $%%&&@@@&**%%%@@@@@@@@@@@  ..      .   ",
"           $%%&&@@@&**%%%@@@@@@@@@@@        . .   ",
"           &$$&&&&&&%%$&&@@###@@@@##        .     ",
"           @@@@@#@@@@@@@@@@@@@@@@#@@              ",
"           @@@@@#@@@@@@@@@@@@@@@@#@@              ",
"           @@@&&@##&&&#&&@@@@@@@@@@@              ",
"           @&&##@@@@&&@&&&&&##@@@@@@@             ",
"  .        @&&##@@@@&&@&&&&&##@@@@@@@             ",
"  .        &@@@@@@@@@@@@@@@@&&@@@@@@@             ",
"           &####&###@@@@@@@@@@#@@@@@@@@           ",
"           &####&###@@@@@@@@@@#@@@@@@@@           ",
"            ##@@@@@@@@@@@@@@@@@@@@@@@@@           ",
"                #@@@@@@@@@@@@@@@@@##@@@           ",
"                #@@@@@@@@@@@@@@@@@##@@@           ",
"                   #@@@@@@@@@@@@@####@@@@         ",
"                   #@@@@@@@@@@@@@####@@@@         ",
"                   +##@@@@@@@@@##    ##@@         ",
"                      ###@@@@@                    ",
"                      ###@@@@@                    ",
"                       .                    .     ",
"      .             .  .         .          .     ",
"      .             ..+.         .          . .   ",
"    . .              ++        . .                ",
"    .                          .                  ",
"                                                  "};
