/* XPM */
static char * p6_xpm[] = {
"50 50 11 1",
" 	c #4D9262",
".	c #7AB055",
"+	c #3E734E",
"@	c #120D08",
"#	c #2F2217",
"$	c #46301E",
"%	c #734F31",
"&	c #E9E9E9",
"*	c #FF1831",
"=	c #CBBFBF",
"-	c #20150C",
"                          ..                      ",
"                 .        .. .               .    ",
"                 .         +.+               .    ",
"                 .          +                     ",
"                                                  ",
"   .                                              ",
"   .                                              ",
" . .                                              ",
" .                                                ",
"                                                  ",
"                                                  ",
"                                                  ",
"                              +              +    ",
"                             + +            + +   ",
"                              +              +    ",
"                                                  ",
"    +                                             ",
"    +     @##             ..                     .",
"           $$$%@@.        .. .                .  .",
"          %%$$$$@.         %%%%%%%            ..+ ",
"        #%%$$$$$@.        %%$%%%&&&%          +.. ",
"      #@$$$$$$$$%%        %$$$$&&&&&           ++ ",
"     ..+.$$$$$$$$%%%%%%%%%%$$$&&&&*&&     %%%@@   ",
"     +..+%$$$$$$$$$$$$$$$$$$$$=&&&*&&%%%%%$$$$%   ",
"      ++ $$$$$$$$$$$$$$$$$$$$$==&&*&&$$$$$$$$$#   ",
"        #$$$$$$$$$$$$$$$$$$%%%$==&&&$$$$$$$$$$@#  ",
"        @   . $$$$$$$$$ $$$$$%%%===$ $$  $$$$%.@  ",
"                        $$$$&-$%%$$-$       @#    ",
"                        $$$---&-&-&-              ",
"                    +    $$--------               ",
"                   + +   $$--------               ",
"                    +## %$$&-&-&-&                ",
"  .                  @@%%%$%%%%%%.                ",
"  .                  @ $$%$$$$$$$% %$#            ",
"                        $%  %$$.$$%$%@#           ",
"                        @$$%%$   $$$$ @           ",
"                       ##@$%$$    $$#             ",
"                       .   %$$      @#            ",
"                          %$$                     ",
"                   +      $                       ",
"                    +     $                       ",
"                   +                              ",
"                                                  ",
"                                                  ",
"                       .                    .     ",
"      .             .  .         .          .     ",
"      .             ..+.         .          . .   ",
"    . .              ++        . .                ",
"    .                          .                  ",
"                                                  "};
