/* XPM */
static char * e_xpm[] = {
"50 50 9 1",
" 	c None",
".	c #110A03",
"+	c #EADFC2",
"@	c #B0A28D",
"#	c #6D5D5B",
"$	c #3E3030",
"%	c #F07508",
"&	c #B52D1B",
"*	c #630D26",
"  ............................................... ",
"  ............................................... ",
"..+++..++++++++++++..+++++++++..++++++++++++..+++.",
"..+++..++++++++++++..+++++++++..++++++++++++..+++.",
"..@@#..+@@@@@@@@@@#..+@@@@@@@#..+@@@@@@@@@@#..+@@.",
"..@@#..+@@@@@@@@@@#..+@@@@@@@#..+@@@@@@@@@@#..+@@.",
"..@@#..+@@@@@@@@@@#..+@@@@@@@#..+@@@@@@@@@@#..+@@.",
"..###..############..#########..############..###.",
"..................................................",
"..................................................",
"..++++++..@@@@@@..+++++++++++++++..@@@@@@..++++++.",
"..++@@@#..@####$..+@@@@@@@@@@@@@#..@####$..+@@@##.",
"..++@@@#..@####$..+@@@@@@@@@@@@@#..@####$..+@@@##.",
"..++@@@#..@####$..+@@@@@@@@@@@@@#..@####$..+@@@##.",
"..++@@@#..@####$..+@@@@@@@@@@@@@#..@####$..+@@@##.",
"..######..$$$$$$..###############..$$$$$$..######.",
"..................................................",
"..................................................",
"..@@@..@@@@@@@@@.....@@@@@@@@@.....@@@@@@@@$..@@@.",
"..##$..@##########$..@#######$..@##########$..@##.",
"..##$..@##########$..@#######$..@##########$..@##.",
"..##$........$$$$$$..@#######$..$$$$$$........@##.",
"..##$..+++%%%........@#######$........%%%+++..@##.",
"..##$..+++%%%........@#######$........%%%+++..@##.",
"..$$$..+@@%&&&&*@@#..$$$$$$$$$..+@@%&&&&*@@#..$$$.",
".......+@@%&&&&*@@#.............+@@%&&&&*@@#......",
".......+@@%&&&&*@@#.............+@@%&&&&*@@#......",
"..@@@..###******###..@@@@@@@@@..###******###..@@@.",
"..@@@..###******###..@@@@@@@@@..###******###..@@@.",
"..##$................@#######$................@##.",
"..##$..@@@@@@@@@@@$..@#######$..@@@@@@@@@@@$..@##.",
"..##$..@@@@@@@@@@@$..@#######$..@@@@@@@@@@@$..@##.",
"..$$$..$$$$$$$$$$$$..$$$$$$$$$..$$$$$$$$$$$$..$$$.",
"..................................................",
"..................................................",
"..++++++..@@@@@@..+++++++++++++++..@@@@@@..++++++.",
"..++@@@#..@####$..+@@@@@@@@@@@@@#..@####$..+@@@##.",
"..++@@@#..@####$..+@@@@@@@@@@@@@#..@####$..+@@@##.",
"..++@@@#..@####$..+@@@@@@@@@@@@@#..@####$..+@@@##.",
"..++@@@#..@####$..+@@@@@@@@@@@@@#..@####$..+@@@##.",
"..######..$$$$$$..###############..$$$$$$..######.",
"..................................................",
"..................................................",
"..+++..++++++++++++..+++++++++..++++++++++++..+++.",
"..@@#..+@@@@@@@@@@#..+@@@@@@@#..+@@@@@@@@@@#..+@@.",
"..@@#..+@@@@@@@@@@#..+@@@@@@@#..+@@@@@@@@@@#..+@@.",
"..@@#..+@@@@@@@@@@#..+@@@@@@@#..+@@@@@@@@@@#..+@@.",
"..###..############..#########..############..###.",
"..###..############..#########..############..###.",
"  ............................................... "};
